# xmcd
# 
# Track frame offsets:
#     183
#     14803
#     26663
#     42610
#     58248
#     71800
#     86413
#     99928
#     112440
#     125455
#     138775
#     151830
#     166370
#     180538
#     193703
#     207250
#     221075
#     234610
#     249888
#     264323
# 
# Disc length: 3705
# 
# Revision: 2
# Processed by: cddbd v1.5.2PL0 Copyright (c) Steve Scherf et al.
# Submitted via: fre:ac v1.0.17
# 
DISCID=250e7714
DTITLE=Bessie Smith - Mother Of The Blues
DYEAR=0
DGENRE=Blues
TTITLE0=I'm Down In The Dumps
TTITLE1=Take Me For A Buggy Ride
TTITLE2=Gimme A Pigfoot
TTITLE3=Do Your Duty
TTITLE4=Blue Spirit Blues
TTITLE5=He's Got Me Goin'
TTITLE6=Kitchen Man
TTITLE7=You've Got To Give Me Some
TTITLE8=I'm Wild At That Thing
TTITLE9=Standing In The Rain Blues
TTITLE10=I Used To Be Your Sweet Mama
TTITLE11=Devil's Gonna Get You
TTITLE12=Thinking Blues
TTITLE13=Foolish Man Blues
TTITLE14=Dyin' By The Hour
TTITLE15=A Good Man Is Hard To Find
TTITLE16=Lock And Key
TTITLE17=Send Me To The 'lecric Chair
TTITLE18=Trombone Cholly
TTITLE19=Alexander's Ragtime Band
EXTD=
EXTT0=
EXTT1=
EXTT2=
EXTT3=
EXTT4=
EXTT5=
EXTT6=
EXTT7=
EXTT8=
EXTT9=
EXTT10=
EXTT11=
EXTT12=
EXTT13=
EXTT14=
EXTT15=
EXTT16=
EXTT17=
EXTT18=
EXTT19=
PLAYORDER=
